<svg width="256" height="256" viewBox="0 0 256 256" fill="none" xmlns="http://www.w3.org/2000/svg">
<g clip-path="url(#clip0_0_1646)">
<path d="M128 21.3333C186.912 21.3333 234.667 69.0879 234.667 128C234.667 156.29 223.429 183.421 203.425 203.425C183.421 223.429 156.29 234.667 128 234.667C99.7102 234.667 72.5791 223.429 52.5753 203.425C32.5714 183.421 21.3333 156.29 21.3333 128C21.3333 69.0879 69.088 21.3333 128 21.3333ZM149.333 74.6666C141.492 74.6653 133.923 77.5432 128.063 82.7539C122.204 87.9646 118.461 95.1455 117.547 102.933L117.387 104.789L117.333 106.667L117.387 108.544C117.589 111.947 118.315 115.2 119.488 118.229L120.448 120.459L83.1146 157.792L82.24 158.795C80.7886 160.665 80.0009 162.966 80.0009 165.333C80.0009 167.701 80.7886 170.001 82.24 171.872L83.1253 172.875L99.1253 188.875L100.128 189.76C101.999 191.211 104.299 191.999 106.667 191.999C109.034 191.999 111.335 191.211 113.205 189.76L114.208 188.875L115.093 187.872C116.545 186.001 117.332 183.701 117.332 181.333C117.332 178.966 116.545 176.665 115.093 174.795L114.208 173.792L105.76 165.333L112 159.093L120.459 167.541L121.461 168.427C123.514 170.017 126.076 170.805 128.668 170.641C131.259 170.478 133.702 169.375 135.539 167.538C137.375 165.702 138.478 163.259 138.642 160.668C138.805 158.076 138.018 155.514 136.427 153.461L135.541 152.459L127.093 144L135.541 135.552C139.875 137.618 144.618 138.683 149.42 138.666C154.221 138.65 158.957 137.554 163.277 135.459C167.597 133.364 171.39 130.323 174.375 126.563C177.36 122.803 179.461 118.419 180.521 113.736C181.582 109.054 181.576 104.192 180.502 99.5128C179.429 94.8331 177.316 90.455 174.321 86.7027C171.326 82.9505 167.524 79.9203 163.199 77.8368C158.873 75.7532 154.134 74.6698 149.333 74.6666ZM149.333 95.9999C152.162 95.9999 154.875 97.1237 156.876 99.1241C158.876 101.124 160 103.838 160 106.667C160 109.496 158.876 112.209 156.876 114.209C154.875 116.209 152.162 117.333 149.333 117.333C146.504 117.333 143.791 116.209 141.791 114.209C139.79 112.209 138.667 109.496 138.667 106.667C138.667 103.838 139.79 101.124 141.791 99.1241C143.791 97.1237 146.504 95.9999 149.333 95.9999Z" fill="#333333"/>
</g>
<defs>
<clipPath id="clip0_0_1646">
<rect width="256" height="256" fill="white"/>
</clipPath>
</defs>
</svg>
